<svg width="293" height="283" viewBox="0 0 293 283" fill="none" xmlns="http://www.w3.org/2000/svg">
<rect width="293" height="283" rx="10" fill="#130D1A"/>
<g filter="url(#filter0_d_103_2)">
<rect x="29" y="63" width="106" height="57" rx="28.5" fill="#414042"/>
<path d="M56.442 94C56.3767 94 56.3253 93.9813 56.288 93.944C56.2507 93.9067 56.232 93.86 56.232 93.804V83.85C56.232 83.7753 56.2507 83.7193 56.288 83.682C56.3347 83.6353 56.3907 83.612 56.456 83.612H59.858C61.146 83.612 62.1353 83.8407 62.826 84.298C63.5167 84.7553 63.862 85.4273 63.862 86.314C63.862 86.8647 63.7173 87.3267 63.428 87.7C63.1387 88.0733 62.672 88.3813 62.028 88.624C61.9907 88.6333 61.972 88.6567 61.972 88.694C61.972 88.722 61.9907 88.7407 62.028 88.75C62.7187 88.9367 63.2367 89.2307 63.582 89.632C63.9367 90.024 64.114 90.5513 64.114 91.214C64.114 92.1567 63.7593 92.8567 63.05 93.314C62.35 93.7713 61.328 94 59.984 94H56.442ZM59.914 92.81C60.7353 92.81 61.3467 92.67 61.748 92.39C62.1493 92.1007 62.35 91.676 62.35 91.116C62.35 90.7053 62.2473 90.374 62.042 90.122C61.846 89.8607 61.5753 89.6693 61.23 89.548C60.8847 89.4267 60.4927 89.366 60.054 89.366H58.15C58.0007 89.366 57.926 89.4267 57.926 89.548V92.6C57.926 92.74 57.9773 92.81 58.08 92.81H59.914ZM60.054 88.134C60.3153 88.134 60.5673 88.1107 60.81 88.064C61.062 88.008 61.2907 87.9193 61.496 87.798C61.7013 87.6673 61.8647 87.4993 61.986 87.294C62.1073 87.0793 62.168 86.818 62.168 86.51C62.168 85.9407 61.958 85.516 61.538 85.236C61.1273 84.9467 60.5767 84.802 59.886 84.802H58.136C57.996 84.802 57.926 84.8627 57.926 84.984V87.938C57.926 88.0687 57.9773 88.134 58.08 88.134H60.054ZM68.5664 93.02C68.9398 93.02 69.2898 92.922 69.6164 92.726C69.9524 92.5207 70.2791 92.25 70.5964 91.914V86.818C70.5964 86.6593 70.6851 86.58 70.8624 86.58H71.8704C72.0198 86.58 72.0944 86.6547 72.0944 86.804L72.0664 93.804C72.0664 93.9347 72.0104 94 71.8984 94H70.8064C70.6944 94 70.6384 93.9393 70.6384 93.818V93.034C70.6384 92.9873 70.6244 92.9593 70.5964 92.95C70.5778 92.9313 70.5451 92.9453 70.4984 92.992C70.0224 93.4213 69.5884 93.72 69.1964 93.888C68.8044 94.056 68.4031 94.14 67.9924 94.14C67.5724 94.14 67.1944 94.0513 66.8584 93.874C66.5318 93.6967 66.2704 93.4447 66.0744 93.118C65.8878 92.7913 65.7944 92.4087 65.7944 91.97V86.832C65.7944 86.664 65.8784 86.58 66.0464 86.58H67.0684C67.2084 86.58 67.2784 86.6547 67.2784 86.804V91.662C67.2784 92.0633 67.3904 92.39 67.6144 92.642C67.8478 92.894 68.1651 93.02 68.5664 93.02ZM76.3645 87.644C76.2805 87.644 76.2385 87.6907 76.2385 87.784V91.886C76.2385 92.2873 76.3132 92.5627 76.4625 92.712C76.6119 92.852 76.8405 92.922 77.1485 92.922H78.0445C78.1005 92.922 78.1425 92.9407 78.1705 92.978C78.1985 93.006 78.2125 93.0433 78.2125 93.09V93.692C78.2125 93.8133 78.1425 93.8927 78.0025 93.93C77.8812 93.9487 77.7319 93.9627 77.5545 93.972C77.3772 93.9813 77.1999 93.9907 77.0225 94C76.8545 94 76.7052 94 76.5745 94C75.9679 94 75.5105 93.86 75.2025 93.58C74.9039 93.2907 74.7545 92.8473 74.7545 92.25V87.812C74.7545 87.7 74.7079 87.644 74.6145 87.644H73.5645C73.4432 87.644 73.3825 87.588 73.3825 87.476V86.734C73.3825 86.6313 73.4385 86.58 73.5505 86.58H74.6705C74.7452 86.58 74.7825 86.538 74.7825 86.454L74.9505 84.256C74.9599 84.1253 75.0159 84.06 75.1185 84.06H76.0845C76.2059 84.06 76.2665 84.1347 76.2665 84.284V86.454C76.2665 86.538 76.3085 86.58 76.3925 86.58H78.0725C78.1845 86.58 78.2405 86.6313 78.2405 86.734V87.476C78.2405 87.588 78.1752 87.644 78.0445 87.644H76.3645ZM81.9837 87.644C81.8997 87.644 81.8577 87.6907 81.8577 87.784V91.886C81.8577 92.2873 81.9324 92.5627 82.0817 92.712C82.231 92.852 82.4597 92.922 82.7677 92.922H83.6637C83.7197 92.922 83.7617 92.9407 83.7897 92.978C83.8177 93.006 83.8317 93.0433 83.8317 93.09V93.692C83.8317 93.8133 83.7617 93.8927 83.6217 93.93C83.5004 93.9487 83.351 93.9627 83.1737 93.972C82.9964 93.9813 82.819 93.9907 82.6417 94C82.4737 94 82.3244 94 82.1937 94C81.587 94 81.1297 93.86 80.8217 93.58C80.523 93.2907 80.3737 92.8473 80.3737 92.25V87.812C80.3737 87.7 80.327 87.644 80.2337 87.644H79.1837C79.0624 87.644 79.0017 87.588 79.0017 87.476V86.734C79.0017 86.6313 79.0577 86.58 79.1697 86.58H80.2897C80.3644 86.58 80.4017 86.538 80.4017 86.454L80.5697 84.256C80.579 84.1253 80.635 84.06 80.7377 84.06H81.7037C81.825 84.06 81.8857 84.1347 81.8857 84.284V86.454C81.8857 86.538 81.9277 86.58 82.0117 86.58H83.6917C83.8037 86.58 83.8597 86.6313 83.8597 86.734V87.476C83.8597 87.588 83.7944 87.644 83.6637 87.644H81.9837ZM88.2934 94.14C87.5748 94.14 86.9448 93.9813 86.4034 93.664C85.8621 93.3373 85.4421 92.8893 85.1434 92.32C84.8448 91.7413 84.6954 91.0787 84.6954 90.332C84.6954 89.5573 84.8494 88.8807 85.1574 88.302C85.4654 87.714 85.8901 87.2567 86.4314 86.93C86.9821 86.6033 87.6074 86.44 88.3074 86.44C89.0354 86.44 89.6654 86.608 90.1974 86.944C90.7388 87.2707 91.1588 87.728 91.4574 88.316C91.7561 88.8947 91.9054 89.562 91.9054 90.318C91.9054 91.0647 91.7514 91.7273 91.4434 92.306C91.1448 92.8753 90.7248 93.3233 90.1834 93.65C89.6421 93.9767 89.0121 94.14 88.2934 94.14ZM88.3214 93.09C88.7601 93.09 89.1334 92.978 89.4414 92.754C89.7494 92.53 89.9828 92.2127 90.1414 91.802C90.3094 91.382 90.3934 90.878 90.3934 90.29C90.3934 89.702 90.3094 89.198 90.1414 88.778C89.9828 88.358 89.7448 88.036 89.4274 87.812C89.1194 87.5787 88.7461 87.462 88.3074 87.462C87.8688 87.462 87.4908 87.5787 87.1734 87.812C86.8654 88.036 86.6274 88.358 86.4594 88.778C86.2914 89.198 86.2074 89.702 86.2074 90.29C86.2074 90.878 86.2914 91.382 86.4594 91.802C86.6274 92.2127 86.8654 92.53 87.1734 92.754C87.4908 92.978 87.8734 93.09 88.3214 93.09ZM93.6923 94C93.5429 94 93.4683 93.9253 93.4683 93.776V86.79C93.4683 86.65 93.5289 86.58 93.6503 86.58H94.7563C94.8683 86.58 94.9243 86.6407 94.9243 86.762V87.532C94.9243 87.5787 94.9336 87.6113 94.9523 87.63C94.9803 87.6393 95.0176 87.6207 95.0643 87.574C95.3536 87.3407 95.6289 87.14 95.8903 86.972C96.1516 86.7947 96.4176 86.664 96.6883 86.58C96.9589 86.4867 97.2529 86.44 97.5703 86.44C98.2796 86.44 98.8303 86.636 99.2223 87.028C99.6143 87.42 99.8103 87.938 99.8103 88.582V93.748C99.8103 93.916 99.7309 94 99.5723 94H98.5363C98.4616 94 98.4056 93.986 98.3683 93.958C98.3403 93.9207 98.3263 93.86 98.3263 93.776V88.876C98.3263 88.4653 98.2189 88.1433 98.0043 87.91C97.7896 87.6767 97.4583 87.56 97.0103 87.56C96.7583 87.56 96.5249 87.602 96.3103 87.686C96.0956 87.7607 95.8809 87.8773 95.6663 88.036C95.4516 88.1853 95.2136 88.3767 94.9523 88.61V93.762C94.9523 93.9207 94.8636 94 94.6863 94H93.6923ZM109.65 92.712C109.78 92.712 109.846 92.7633 109.846 92.866V93.818C109.846 93.8647 109.827 93.9067 109.79 93.944C109.762 93.9813 109.71 94 109.636 94H104.54C104.409 94 104.344 93.944 104.344 93.832V92.866C104.344 92.7633 104.404 92.712 104.526 92.712H106.192C106.276 92.712 106.318 92.684 106.318 92.628V85.502C106.318 85.39 106.266 85.348 106.164 85.376L104.554 85.936C104.404 85.9733 104.33 85.908 104.33 85.74V85.068C104.33 84.984 104.339 84.9327 104.358 84.914C104.386 84.886 104.428 84.8533 104.484 84.816L106.654 83.738C106.756 83.6913 106.836 83.6587 106.892 83.64C106.957 83.6213 107.036 83.612 107.13 83.612H107.83C107.951 83.612 108.012 83.6773 108.012 83.808V92.586C108.012 92.67 108.044 92.712 108.11 92.712H109.65Z" fill="white"/>
<rect x="29.5" y="63.5" width="105" height="56" rx="28" stroke="#FF49C1" stroke-opacity="0.9"/>
</g>
<g filter="url(#filter1_d_103_2)">
<rect x="29" y="156" width="106" height="57" rx="15" fill="#322E2E"/>
<path d="M53.442 190C53.3767 190 53.3253 189.981 53.288 189.944C53.2507 189.907 53.232 189.86 53.232 189.804V179.85C53.232 179.775 53.2507 179.719 53.288 179.682C53.3347 179.635 53.3907 179.612 53.456 179.612H56.858C58.146 179.612 59.1353 179.841 59.826 180.298C60.5167 180.755 60.862 181.427 60.862 182.314C60.862 182.865 60.7173 183.327 60.428 183.7C60.1387 184.073 59.672 184.381 59.028 184.624C58.9907 184.633 58.972 184.657 58.972 184.694C58.972 184.722 58.9907 184.741 59.028 184.75C59.7187 184.937 60.2367 185.231 60.582 185.632C60.9367 186.024 61.114 186.551 61.114 187.214C61.114 188.157 60.7593 188.857 60.05 189.314C59.35 189.771 58.328 190 56.984 190H53.442ZM56.914 188.81C57.7353 188.81 58.3467 188.67 58.748 188.39C59.1493 188.101 59.35 187.676 59.35 187.116C59.35 186.705 59.2473 186.374 59.042 186.122C58.846 185.861 58.5753 185.669 58.23 185.548C57.8847 185.427 57.4927 185.366 57.054 185.366H55.15C55.0007 185.366 54.926 185.427 54.926 185.548V188.6C54.926 188.74 54.9773 188.81 55.08 188.81H56.914ZM57.054 184.134C57.3153 184.134 57.5673 184.111 57.81 184.064C58.062 184.008 58.2907 183.919 58.496 183.798C58.7013 183.667 58.8647 183.499 58.986 183.294C59.1073 183.079 59.168 182.818 59.168 182.51C59.168 181.941 58.958 181.516 58.538 181.236C58.1273 180.947 57.5767 180.802 56.886 180.802H55.136C54.996 180.802 54.926 180.863 54.926 180.984V183.938C54.926 184.069 54.9773 184.134 55.08 184.134H57.054ZM65.5664 189.02C65.9398 189.02 66.2898 188.922 66.6164 188.726C66.9524 188.521 67.2791 188.25 67.5964 187.914V182.818C67.5964 182.659 67.6851 182.58 67.8624 182.58H68.8704C69.0198 182.58 69.0944 182.655 69.0944 182.804L69.0664 189.804C69.0664 189.935 69.0104 190 68.8984 190H67.8064C67.6944 190 67.6384 189.939 67.6384 189.818V189.034C67.6384 188.987 67.6244 188.959 67.5964 188.95C67.5778 188.931 67.5451 188.945 67.4984 188.992C67.0224 189.421 66.5884 189.72 66.1964 189.888C65.8044 190.056 65.4031 190.14 64.9924 190.14C64.5724 190.14 64.1944 190.051 63.8584 189.874C63.5318 189.697 63.2704 189.445 63.0744 189.118C62.8878 188.791 62.7944 188.409 62.7944 187.97V182.832C62.7944 182.664 62.8784 182.58 63.0464 182.58H64.0684C64.2084 182.58 64.2784 182.655 64.2784 182.804V187.662C64.2784 188.063 64.3904 188.39 64.6144 188.642C64.8478 188.894 65.1651 189.02 65.5664 189.02ZM73.3645 183.644C73.2805 183.644 73.2385 183.691 73.2385 183.784V187.886C73.2385 188.287 73.3132 188.563 73.4625 188.712C73.6119 188.852 73.8405 188.922 74.1485 188.922H75.0445C75.1005 188.922 75.1425 188.941 75.1705 188.978C75.1985 189.006 75.2125 189.043 75.2125 189.09V189.692C75.2125 189.813 75.1425 189.893 75.0025 189.93C74.8812 189.949 74.7319 189.963 74.5545 189.972C74.3772 189.981 74.1999 189.991 74.0225 190C73.8545 190 73.7052 190 73.5745 190C72.9679 190 72.5105 189.86 72.2025 189.58C71.9039 189.291 71.7545 188.847 71.7545 188.25V183.812C71.7545 183.7 71.7079 183.644 71.6145 183.644H70.5645C70.4432 183.644 70.3825 183.588 70.3825 183.476V182.734C70.3825 182.631 70.4385 182.58 70.5505 182.58H71.6705C71.7452 182.58 71.7825 182.538 71.7825 182.454L71.9505 180.256C71.9599 180.125 72.0159 180.06 72.1185 180.06H73.0845C73.2059 180.06 73.2665 180.135 73.2665 180.284V182.454C73.2665 182.538 73.3085 182.58 73.3925 182.58H75.0725C75.1845 182.58 75.2405 182.631 75.2405 182.734V183.476C75.2405 183.588 75.1752 183.644 75.0445 183.644H73.3645ZM78.9837 183.644C78.8997 183.644 78.8577 183.691 78.8577 183.784V187.886C78.8577 188.287 78.9324 188.563 79.0817 188.712C79.231 188.852 79.4597 188.922 79.7677 188.922H80.6637C80.7197 188.922 80.7617 188.941 80.7897 188.978C80.8177 189.006 80.8317 189.043 80.8317 189.09V189.692C80.8317 189.813 80.7617 189.893 80.6217 189.93C80.5004 189.949 80.351 189.963 80.1737 189.972C79.9964 189.981 79.819 189.991 79.6417 190C79.4737 190 79.3244 190 79.1937 190C78.587 190 78.1297 189.86 77.8217 189.58C77.523 189.291 77.3737 188.847 77.3737 188.25V183.812C77.3737 183.7 77.327 183.644 77.2337 183.644H76.1837C76.0624 183.644 76.0017 183.588 76.0017 183.476V182.734C76.0017 182.631 76.0577 182.58 76.1697 182.58H77.2897C77.3644 182.58 77.4017 182.538 77.4017 182.454L77.5697 180.256C77.579 180.125 77.635 180.06 77.7377 180.06H78.7037C78.825 180.06 78.8857 180.135 78.8857 180.284V182.454C78.8857 182.538 78.9277 182.58 79.0117 182.58H80.6917C80.8037 182.58 80.8597 182.631 80.8597 182.734V183.476C80.8597 183.588 80.7944 183.644 80.6637 183.644H78.9837ZM85.2934 190.14C84.5748 190.14 83.9448 189.981 83.4034 189.664C82.8621 189.337 82.4421 188.889 82.1434 188.32C81.8448 187.741 81.6954 187.079 81.6954 186.332C81.6954 185.557 81.8494 184.881 82.1574 184.302C82.4654 183.714 82.8901 183.257 83.4314 182.93C83.9821 182.603 84.6074 182.44 85.3074 182.44C86.0354 182.44 86.6654 182.608 87.1974 182.944C87.7388 183.271 88.1588 183.728 88.4574 184.316C88.7561 184.895 88.9054 185.562 88.9054 186.318C88.9054 187.065 88.7514 187.727 88.4434 188.306C88.1448 188.875 87.7248 189.323 87.1834 189.65C86.6421 189.977 86.0121 190.14 85.2934 190.14ZM85.3214 189.09C85.7601 189.09 86.1334 188.978 86.4414 188.754C86.7494 188.53 86.9828 188.213 87.1414 187.802C87.3094 187.382 87.3934 186.878 87.3934 186.29C87.3934 185.702 87.3094 185.198 87.1414 184.778C86.9828 184.358 86.7448 184.036 86.4274 183.812C86.1194 183.579 85.7461 183.462 85.3074 183.462C84.8688 183.462 84.4908 183.579 84.1734 183.812C83.8654 184.036 83.6274 184.358 83.4594 184.778C83.2914 185.198 83.2074 185.702 83.2074 186.29C83.2074 186.878 83.2914 187.382 83.4594 187.802C83.6274 188.213 83.8654 188.53 84.1734 188.754C84.4908 188.978 84.8734 189.09 85.3214 189.09ZM90.6923 190C90.5429 190 90.4683 189.925 90.4683 189.776V182.79C90.4683 182.65 90.5289 182.58 90.6503 182.58H91.7563C91.8683 182.58 91.9243 182.641 91.9243 182.762V183.532C91.9243 183.579 91.9336 183.611 91.9523 183.63C91.9803 183.639 92.0176 183.621 92.0643 183.574C92.3536 183.341 92.6289 183.14 92.8903 182.972C93.1516 182.795 93.4176 182.664 93.6883 182.58C93.9589 182.487 94.2529 182.44 94.5703 182.44C95.2796 182.44 95.8303 182.636 96.2223 183.028C96.6143 183.42 96.8103 183.938 96.8103 184.582V189.748C96.8103 189.916 96.7309 190 96.5723 190H95.5363C95.4616 190 95.4056 189.986 95.3683 189.958C95.3403 189.921 95.3263 189.86 95.3263 189.776V184.876C95.3263 184.465 95.2189 184.143 95.0043 183.91C94.7896 183.677 94.4583 183.56 94.0103 183.56C93.7583 183.56 93.5249 183.602 93.3103 183.686C93.0956 183.761 92.8809 183.877 92.6663 184.036C92.4516 184.185 92.2136 184.377 91.9523 184.61V189.762C91.9523 189.921 91.8636 190 91.6863 190H90.6923ZM101.708 181.124C101.642 181.049 101.642 180.965 101.708 180.872C101.988 180.564 102.3 180.307 102.646 180.102C103 179.897 103.383 179.743 103.794 179.64C104.204 179.528 104.629 179.472 105.068 179.472C105.824 179.472 106.472 179.589 107.014 179.822C107.555 180.046 107.97 180.359 108.26 180.76C108.549 181.152 108.694 181.609 108.694 182.132C108.694 182.617 108.54 183.065 108.232 183.476C107.933 183.877 107.513 184.171 106.972 184.358C106.869 184.395 106.813 184.433 106.804 184.47C106.804 184.498 106.855 184.531 106.958 184.568C107.35 184.671 107.7 184.843 108.008 185.086C108.316 185.319 108.558 185.609 108.736 185.954C108.922 186.29 109.016 186.668 109.016 187.088C109.016 187.695 108.862 188.227 108.554 188.684C108.255 189.141 107.798 189.501 107.182 189.762C106.575 190.014 105.81 190.14 104.886 190.14C104.4 190.14 103.934 190.079 103.486 189.958C103.047 189.837 102.641 189.664 102.268 189.44C101.894 189.207 101.563 188.922 101.274 188.586C101.227 188.521 101.208 188.465 101.218 188.418C101.236 188.371 101.274 188.325 101.33 188.278L102.086 187.718C102.151 187.662 102.202 187.639 102.24 187.648C102.277 187.657 102.31 187.676 102.338 187.704C102.618 187.993 102.893 188.227 103.164 188.404C103.434 188.572 103.719 188.698 104.018 188.782C104.316 188.857 104.643 188.894 104.998 188.894C105.744 188.894 106.323 188.731 106.734 188.404C107.144 188.077 107.35 187.653 107.35 187.13C107.35 186.719 107.233 186.374 107 186.094C106.776 185.814 106.477 185.604 106.104 185.464C105.74 185.315 105.348 185.235 104.928 185.226L103.71 185.212C103.579 185.212 103.514 185.161 103.514 185.058V184.148C103.514 184.055 103.579 184.003 103.71 183.994L104.69 183.966C105.147 183.966 105.548 183.891 105.894 183.742C106.248 183.583 106.528 183.373 106.734 183.112C106.939 182.841 107.042 182.543 107.042 182.216C107.042 181.927 106.958 181.67 106.79 181.446C106.622 181.213 106.388 181.031 106.09 180.9C105.791 180.76 105.45 180.69 105.068 180.69C104.601 180.69 104.172 180.779 103.78 180.956C103.388 181.133 103.01 181.399 102.646 181.754C102.59 181.801 102.543 181.829 102.506 181.838C102.478 181.838 102.431 181.81 102.366 181.754L101.708 181.124Z" fill="white"/>
<rect x="29.5" y="156.5" width="105" height="56" rx="14.5" stroke="#FB8787"/>
</g>
<g filter="url(#filter2_d_103_2)">
<rect x="145" y="63" width="106" height="57" rx="28.5" fill="white"/>
<path d="M170.442 97C170.377 97 170.325 96.9813 170.288 96.944C170.251 96.9067 170.232 96.86 170.232 96.804V86.85C170.232 86.7753 170.251 86.7193 170.288 86.682C170.335 86.6353 170.391 86.612 170.456 86.612H173.858C175.146 86.612 176.135 86.8407 176.826 87.298C177.517 87.7553 177.862 88.4273 177.862 89.314C177.862 89.8647 177.717 90.3267 177.428 90.7C177.139 91.0733 176.672 91.3813 176.028 91.624C175.991 91.6333 175.972 91.6567 175.972 91.694C175.972 91.722 175.991 91.7407 176.028 91.75C176.719 91.9367 177.237 92.2307 177.582 92.632C177.937 93.024 178.114 93.5513 178.114 94.214C178.114 95.1567 177.759 95.8567 177.05 96.314C176.35 96.7713 175.328 97 173.984 97H170.442ZM173.914 95.81C174.735 95.81 175.347 95.67 175.748 95.39C176.149 95.1007 176.35 94.676 176.35 94.116C176.35 93.7053 176.247 93.374 176.042 93.122C175.846 92.8607 175.575 92.6693 175.23 92.548C174.885 92.4267 174.493 92.366 174.054 92.366H172.15C172.001 92.366 171.926 92.4267 171.926 92.548V95.6C171.926 95.74 171.977 95.81 172.08 95.81H173.914ZM174.054 91.134C174.315 91.134 174.567 91.1107 174.81 91.064C175.062 91.008 175.291 90.9193 175.496 90.798C175.701 90.6673 175.865 90.4993 175.986 90.294C176.107 90.0793 176.168 89.818 176.168 89.51C176.168 88.9407 175.958 88.516 175.538 88.236C175.127 87.9467 174.577 87.802 173.886 87.802H172.136C171.996 87.802 171.926 87.8627 171.926 87.984V90.938C171.926 91.0687 171.977 91.134 172.08 91.134H174.054ZM182.566 96.02C182.94 96.02 183.29 95.922 183.616 95.726C183.952 95.5207 184.279 95.25 184.596 94.914V89.818C184.596 89.6593 184.685 89.58 184.862 89.58H185.87C186.02 89.58 186.094 89.6547 186.094 89.804L186.066 96.804C186.066 96.9347 186.01 97 185.898 97H184.806C184.694 97 184.638 96.9393 184.638 96.818V96.034C184.638 95.9873 184.624 95.9593 184.596 95.95C184.578 95.9313 184.545 95.9453 184.498 95.992C184.022 96.4213 183.588 96.72 183.196 96.888C182.804 97.056 182.403 97.14 181.992 97.14C181.572 97.14 181.194 97.0513 180.858 96.874C180.532 96.6967 180.27 96.4447 180.074 96.118C179.888 95.7913 179.794 95.4087 179.794 94.97V89.832C179.794 89.664 179.878 89.58 180.046 89.58H181.068C181.208 89.58 181.278 89.6547 181.278 89.804V94.662C181.278 95.0633 181.39 95.39 181.614 95.642C181.848 95.894 182.165 96.02 182.566 96.02ZM190.365 90.644C190.281 90.644 190.239 90.6907 190.239 90.784V94.886C190.239 95.2873 190.313 95.5627 190.463 95.712C190.612 95.852 190.841 95.922 191.149 95.922H192.045C192.101 95.922 192.143 95.9407 192.171 95.978C192.199 96.006 192.213 96.0433 192.213 96.09V96.692C192.213 96.8133 192.143 96.8927 192.003 96.93C191.881 96.9487 191.732 96.9627 191.555 96.972C191.377 96.9813 191.2 96.9907 191.023 97C190.855 97 190.705 97 190.575 97C189.968 97 189.511 96.86 189.203 96.58C188.904 96.2907 188.755 95.8473 188.755 95.25V90.812C188.755 90.7 188.708 90.644 188.615 90.644H187.565C187.443 90.644 187.383 90.588 187.383 90.476V89.734C187.383 89.6313 187.439 89.58 187.551 89.58H188.671C188.745 89.58 188.783 89.538 188.783 89.454L188.951 87.256C188.96 87.1253 189.016 87.06 189.119 87.06H190.085C190.206 87.06 190.267 87.1347 190.267 87.284V89.454C190.267 89.538 190.309 89.58 190.393 89.58H192.073C192.185 89.58 192.241 89.6313 192.241 89.734V90.476C192.241 90.588 192.175 90.644 192.045 90.644H190.365ZM195.984 90.644C195.9 90.644 195.858 90.6907 195.858 90.784V94.886C195.858 95.2873 195.932 95.5627 196.082 95.712C196.231 95.852 196.46 95.922 196.768 95.922H197.664C197.72 95.922 197.762 95.9407 197.79 95.978C197.818 96.006 197.832 96.0433 197.832 96.09V96.692C197.832 96.8133 197.762 96.8927 197.622 96.93C197.5 96.9487 197.351 96.9627 197.174 96.972C196.996 96.9813 196.819 96.9907 196.642 97C196.474 97 196.324 97 196.194 97C195.587 97 195.13 96.86 194.822 96.58C194.523 96.2907 194.374 95.8473 194.374 95.25V90.812C194.374 90.7 194.327 90.644 194.234 90.644H193.184C193.062 90.644 193.002 90.588 193.002 90.476V89.734C193.002 89.6313 193.058 89.58 193.17 89.58H194.29C194.364 89.58 194.402 89.538 194.402 89.454L194.57 87.256C194.579 87.1253 194.635 87.06 194.738 87.06H195.704C195.825 87.06 195.886 87.1347 195.886 87.284V89.454C195.886 89.538 195.928 89.58 196.012 89.58H197.692C197.804 89.58 197.86 89.6313 197.86 89.734V90.476C197.86 90.588 197.794 90.644 197.664 90.644H195.984ZM202.293 97.14C201.575 97.14 200.945 96.9813 200.403 96.664C199.862 96.3373 199.442 95.8893 199.143 95.32C198.845 94.7413 198.695 94.0787 198.695 93.332C198.695 92.5573 198.849 91.8807 199.157 91.302C199.465 90.714 199.89 90.2567 200.431 89.93C200.982 89.6033 201.607 89.44 202.307 89.44C203.035 89.44 203.665 89.608 204.197 89.944C204.739 90.2707 205.159 90.728 205.457 91.316C205.756 91.8947 205.905 92.562 205.905 93.318C205.905 94.0647 205.751 94.7273 205.443 95.306C205.145 95.8753 204.725 96.3233 204.183 96.65C203.642 96.9767 203.012 97.14 202.293 97.14ZM202.321 96.09C202.76 96.09 203.133 95.978 203.441 95.754C203.749 95.53 203.983 95.2127 204.141 94.802C204.309 94.382 204.393 93.878 204.393 93.29C204.393 92.702 204.309 92.198 204.141 91.778C203.983 91.358 203.745 91.036 203.427 90.812C203.119 90.5787 202.746 90.462 202.307 90.462C201.869 90.462 201.491 90.5787 201.173 90.812C200.865 91.036 200.627 91.358 200.459 91.778C200.291 92.198 200.207 92.702 200.207 93.29C200.207 93.878 200.291 94.382 200.459 94.802C200.627 95.2127 200.865 95.53 201.173 95.754C201.491 95.978 201.873 96.09 202.321 96.09ZM207.692 97C207.543 97 207.468 96.9253 207.468 96.776V89.79C207.468 89.65 207.529 89.58 207.65 89.58H208.756C208.868 89.58 208.924 89.6407 208.924 89.762V90.532C208.924 90.5787 208.934 90.6113 208.952 90.63C208.98 90.6393 209.018 90.6207 209.064 90.574C209.354 90.3407 209.629 90.14 209.89 89.972C210.152 89.7947 210.418 89.664 210.688 89.58C210.959 89.4867 211.253 89.44 211.57 89.44C212.28 89.44 212.83 89.636 213.222 90.028C213.614 90.42 213.81 90.938 213.81 91.582V96.748C213.81 96.916 213.731 97 213.572 97H212.536C212.462 97 212.406 96.986 212.368 96.958C212.34 96.9207 212.326 96.86 212.326 96.776V91.876C212.326 91.4653 212.219 91.1433 212.004 90.91C211.79 90.6767 211.458 90.56 211.01 90.56C210.758 90.56 210.525 90.602 210.31 90.686C210.096 90.7607 209.881 90.8773 209.666 91.036C209.452 91.1853 209.214 91.3767 208.952 91.61V96.762C208.952 96.9207 208.864 97 208.686 97H207.692ZM221.648 92.604C222.058 92.2213 222.399 91.89 222.67 91.61C222.94 91.3207 223.155 91.0547 223.314 90.812C223.482 90.5693 223.598 90.3407 223.664 90.126C223.738 89.902 223.776 89.6687 223.776 89.426C223.776 89.062 223.682 88.7587 223.496 88.516C223.318 88.264 223.085 88.0727 222.796 87.942C222.516 87.8113 222.208 87.746 221.872 87.746C221.61 87.746 221.344 87.7927 221.074 87.886C220.803 87.9793 220.542 88.1287 220.29 88.334C220.038 88.5393 219.804 88.8147 219.59 89.16C219.571 89.2067 219.534 89.2347 219.478 89.244C219.422 89.2533 219.356 89.2393 219.282 89.202L218.47 88.754C218.395 88.698 218.353 88.642 218.344 88.586C218.334 88.5207 218.353 88.4553 218.4 88.39C218.838 87.7273 219.37 87.242 219.996 86.934C220.621 86.626 221.288 86.472 221.998 86.472C222.632 86.472 223.206 86.584 223.72 86.808C224.242 87.032 224.658 87.368 224.966 87.816C225.274 88.2547 225.428 88.8053 225.428 89.468C225.428 89.86 225.358 90.2333 225.218 90.588C225.078 90.9427 224.844 91.3113 224.518 91.694C224.2 92.0673 223.78 92.492 223.258 92.968L220.5 95.418C220.444 95.4647 220.42 95.5067 220.43 95.544C220.439 95.572 220.49 95.586 220.584 95.586H225.33C225.47 95.586 225.54 95.6467 225.54 95.768V96.804C225.54 96.86 225.521 96.9067 225.484 96.944C225.456 96.9813 225.404 97 225.33 97H218.582C218.479 97 218.409 96.986 218.372 96.958C218.334 96.9207 218.316 96.8553 218.316 96.762V96.02C218.316 95.9547 218.325 95.8987 218.344 95.852C218.362 95.796 218.404 95.7307 218.47 95.656C218.544 95.5813 218.647 95.488 218.778 95.376L221.648 92.604Z" fill="#322E2E"/>
<rect x="145.5" y="63.5" width="105" height="56" rx="28" stroke="#FF41BE"/>
</g>
<g filter="url(#filter3_d_103_2)">
<rect x="146" y="156" width="106" height="57" rx="15" fill="#322E2E"/>
<path d="M170.442 189C170.377 189 170.325 188.981 170.288 188.944C170.251 188.907 170.232 188.86 170.232 188.804V178.85C170.232 178.775 170.251 178.719 170.288 178.682C170.335 178.635 170.391 178.612 170.456 178.612H173.858C175.146 178.612 176.135 178.841 176.826 179.298C177.517 179.755 177.862 180.427 177.862 181.314C177.862 181.865 177.717 182.327 177.428 182.7C177.139 183.073 176.672 183.381 176.028 183.624C175.991 183.633 175.972 183.657 175.972 183.694C175.972 183.722 175.991 183.741 176.028 183.75C176.719 183.937 177.237 184.231 177.582 184.632C177.937 185.024 178.114 185.551 178.114 186.214C178.114 187.157 177.759 187.857 177.05 188.314C176.35 188.771 175.328 189 173.984 189H170.442ZM173.914 187.81C174.735 187.81 175.347 187.67 175.748 187.39C176.149 187.101 176.35 186.676 176.35 186.116C176.35 185.705 176.247 185.374 176.042 185.122C175.846 184.861 175.575 184.669 175.23 184.548C174.885 184.427 174.493 184.366 174.054 184.366H172.15C172.001 184.366 171.926 184.427 171.926 184.548V187.6C171.926 187.74 171.977 187.81 172.08 187.81H173.914ZM174.054 183.134C174.315 183.134 174.567 183.111 174.81 183.064C175.062 183.008 175.291 182.919 175.496 182.798C175.701 182.667 175.865 182.499 175.986 182.294C176.107 182.079 176.168 181.818 176.168 181.51C176.168 180.941 175.958 180.516 175.538 180.236C175.127 179.947 174.577 179.802 173.886 179.802H172.136C171.996 179.802 171.926 179.863 171.926 179.984V182.938C171.926 183.069 171.977 183.134 172.08 183.134H174.054ZM182.566 188.02C182.94 188.02 183.29 187.922 183.616 187.726C183.952 187.521 184.279 187.25 184.596 186.914V181.818C184.596 181.659 184.685 181.58 184.862 181.58H185.87C186.02 181.58 186.094 181.655 186.094 181.804L186.066 188.804C186.066 188.935 186.01 189 185.898 189H184.806C184.694 189 184.638 188.939 184.638 188.818V188.034C184.638 187.987 184.624 187.959 184.596 187.95C184.578 187.931 184.545 187.945 184.498 187.992C184.022 188.421 183.588 188.72 183.196 188.888C182.804 189.056 182.403 189.14 181.992 189.14C181.572 189.14 181.194 189.051 180.858 188.874C180.532 188.697 180.27 188.445 180.074 188.118C179.888 187.791 179.794 187.409 179.794 186.97V181.832C179.794 181.664 179.878 181.58 180.046 181.58H181.068C181.208 181.58 181.278 181.655 181.278 181.804V186.662C181.278 187.063 181.39 187.39 181.614 187.642C181.848 187.894 182.165 188.02 182.566 188.02ZM190.365 182.644C190.281 182.644 190.239 182.691 190.239 182.784V186.886C190.239 187.287 190.313 187.563 190.463 187.712C190.612 187.852 190.841 187.922 191.149 187.922H192.045C192.101 187.922 192.143 187.941 192.171 187.978C192.199 188.006 192.213 188.043 192.213 188.09V188.692C192.213 188.813 192.143 188.893 192.003 188.93C191.881 188.949 191.732 188.963 191.555 188.972C191.377 188.981 191.2 188.991 191.023 189C190.855 189 190.705 189 190.575 189C189.968 189 189.511 188.86 189.203 188.58C188.904 188.291 188.755 187.847 188.755 187.25V182.812C188.755 182.7 188.708 182.644 188.615 182.644H187.565C187.443 182.644 187.383 182.588 187.383 182.476V181.734C187.383 181.631 187.439 181.58 187.551 181.58H188.671C188.745 181.58 188.783 181.538 188.783 181.454L188.951 179.256C188.96 179.125 189.016 179.06 189.119 179.06H190.085C190.206 179.06 190.267 179.135 190.267 179.284V181.454C190.267 181.538 190.309 181.58 190.393 181.58H192.073C192.185 181.58 192.241 181.631 192.241 181.734V182.476C192.241 182.588 192.175 182.644 192.045 182.644H190.365ZM195.984 182.644C195.9 182.644 195.858 182.691 195.858 182.784V186.886C195.858 187.287 195.932 187.563 196.082 187.712C196.231 187.852 196.46 187.922 196.768 187.922H197.664C197.72 187.922 197.762 187.941 197.79 187.978C197.818 188.006 197.832 188.043 197.832 188.09V188.692C197.832 188.813 197.762 188.893 197.622 188.93C197.5 188.949 197.351 188.963 197.174 188.972C196.996 188.981 196.819 188.991 196.642 189C196.474 189 196.324 189 196.194 189C195.587 189 195.13 188.86 194.822 188.58C194.523 188.291 194.374 187.847 194.374 187.25V182.812C194.374 182.7 194.327 182.644 194.234 182.644H193.184C193.062 182.644 193.002 182.588 193.002 182.476V181.734C193.002 181.631 193.058 181.58 193.17 181.58H194.29C194.364 181.58 194.402 181.538 194.402 181.454L194.57 179.256C194.579 179.125 194.635 179.06 194.738 179.06H195.704C195.825 179.06 195.886 179.135 195.886 179.284V181.454C195.886 181.538 195.928 181.58 196.012 181.58H197.692C197.804 181.58 197.86 181.631 197.86 181.734V182.476C197.86 182.588 197.794 182.644 197.664 182.644H195.984ZM202.293 189.14C201.575 189.14 200.945 188.981 200.403 188.664C199.862 188.337 199.442 187.889 199.143 187.32C198.845 186.741 198.695 186.079 198.695 185.332C198.695 184.557 198.849 183.881 199.157 183.302C199.465 182.714 199.89 182.257 200.431 181.93C200.982 181.603 201.607 181.44 202.307 181.44C203.035 181.44 203.665 181.608 204.197 181.944C204.739 182.271 205.159 182.728 205.457 183.316C205.756 183.895 205.905 184.562 205.905 185.318C205.905 186.065 205.751 186.727 205.443 187.306C205.145 187.875 204.725 188.323 204.183 188.65C203.642 188.977 203.012 189.14 202.293 189.14ZM202.321 188.09C202.76 188.09 203.133 187.978 203.441 187.754C203.749 187.53 203.983 187.213 204.141 186.802C204.309 186.382 204.393 185.878 204.393 185.29C204.393 184.702 204.309 184.198 204.141 183.778C203.983 183.358 203.745 183.036 203.427 182.812C203.119 182.579 202.746 182.462 202.307 182.462C201.869 182.462 201.491 182.579 201.173 182.812C200.865 183.036 200.627 183.358 200.459 183.778C200.291 184.198 200.207 184.702 200.207 185.29C200.207 185.878 200.291 186.382 200.459 186.802C200.627 187.213 200.865 187.53 201.173 187.754C201.491 187.978 201.873 188.09 202.321 188.09ZM207.692 189C207.543 189 207.468 188.925 207.468 188.776V181.79C207.468 181.65 207.529 181.58 207.65 181.58H208.756C208.868 181.58 208.924 181.641 208.924 181.762V182.532C208.924 182.579 208.934 182.611 208.952 182.63C208.98 182.639 209.018 182.621 209.064 182.574C209.354 182.341 209.629 182.14 209.89 181.972C210.152 181.795 210.418 181.664 210.688 181.58C210.959 181.487 211.253 181.44 211.57 181.44C212.28 181.44 212.83 181.636 213.222 182.028C213.614 182.42 213.81 182.938 213.81 183.582V188.748C213.81 188.916 213.731 189 213.572 189H212.536C212.462 189 212.406 188.986 212.368 188.958C212.34 188.921 212.326 188.86 212.326 188.776V183.876C212.326 183.465 212.219 183.143 212.004 182.91C211.79 182.677 211.458 182.56 211.01 182.56C210.758 182.56 210.525 182.602 210.31 182.686C210.096 182.761 209.881 182.877 209.666 183.036C209.452 183.185 209.214 183.377 208.952 183.61V188.762C208.952 188.921 208.864 189 208.686 189H207.692ZM222.992 178.794C223.057 178.719 223.113 178.673 223.16 178.654C223.216 178.626 223.295 178.612 223.398 178.612H224.602C224.723 178.612 224.784 178.677 224.784 178.808V184.968C224.784 185.061 224.826 185.108 224.91 185.108H226.17C226.31 185.108 226.38 185.164 226.38 185.276V186.116C226.38 186.256 226.31 186.326 226.17 186.326H224.924C224.83 186.326 224.784 186.373 224.784 186.466V188.762C224.784 188.921 224.695 189 224.518 189H223.3C223.15 189 223.076 188.925 223.076 188.776V186.424C223.076 186.359 223.029 186.326 222.936 186.326H218.512C218.353 186.326 218.274 186.256 218.274 186.116V185.262C218.274 185.187 218.292 185.113 218.33 185.038C218.376 184.954 218.446 184.851 218.54 184.73L222.992 178.794ZM222.936 185.108C223.02 185.108 223.062 185.075 223.062 185.01V180.712C223.062 180.6 223.048 180.539 223.02 180.53C222.992 180.521 222.94 180.563 222.866 180.656L219.73 184.926C219.636 185.047 219.669 185.108 219.828 185.108H222.936Z" fill="white"/>
<rect x="146.5" y="156.5" width="105" height="56" rx="14.5" stroke="#FFDCDC" stroke-opacity="0.9"/>
</g>
<defs>
<filter id="filter0_d_103_2" x="25" y="63" width="114" height="65" filterUnits="userSpaceOnUse" color-interpolation-filters="sRGB">
<feFlood flood-opacity="0" result="BackgroundImageFix"/>
<feColorMatrix in="SourceAlpha" type="matrix" values="0 0 0 0 0 0 0 0 0 0 0 0 0 0 0 0 0 0 127 0" result="hardAlpha"/>
<feOffset dy="4"/>
<feGaussianBlur stdDeviation="2"/>
<feComposite in2="hardAlpha" operator="out"/>
<feColorMatrix type="matrix" values="0 0 0 0 0 0 0 0 0 0 0 0 0 0 0 0 0 0 0.25 0"/>
<feBlend mode="normal" in2="BackgroundImageFix" result="effect1_dropShadow_103_2"/>
<feBlend mode="normal" in="SourceGraphic" in2="effect1_dropShadow_103_2" result="shape"/>
</filter>
<filter id="filter1_d_103_2" x="25" y="156" width="114" height="65" filterUnits="userSpaceOnUse" color-interpolation-filters="sRGB">
<feFlood flood-opacity="0" result="BackgroundImageFix"/>
<feColorMatrix in="SourceAlpha" type="matrix" values="0 0 0 0 0 0 0 0 0 0 0 0 0 0 0 0 0 0 127 0" result="hardAlpha"/>
<feOffset dy="4"/>
<feGaussianBlur stdDeviation="2"/>
<feComposite in2="hardAlpha" operator="out"/>
<feColorMatrix type="matrix" values="0 0 0 0 0 0 0 0 0 0 0 0 0 0 0 0 0 0 0.25 0"/>
<feBlend mode="normal" in2="BackgroundImageFix" result="effect1_dropShadow_103_2"/>
<feBlend mode="normal" in="SourceGraphic" in2="effect1_dropShadow_103_2" result="shape"/>
</filter>
<filter id="filter2_d_103_2" x="141" y="63" width="114" height="65" filterUnits="userSpaceOnUse" color-interpolation-filters="sRGB">
<feFlood flood-opacity="0" result="BackgroundImageFix"/>
<feColorMatrix in="SourceAlpha" type="matrix" values="0 0 0 0 0 0 0 0 0 0 0 0 0 0 0 0 0 0 127 0" result="hardAlpha"/>
<feOffset dy="4"/>
<feGaussianBlur stdDeviation="2"/>
<feComposite in2="hardAlpha" operator="out"/>
<feColorMatrix type="matrix" values="0 0 0 0 0 0 0 0 0 0 0 0 0 0 0 0 0 0 0.25 0"/>
<feBlend mode="normal" in2="BackgroundImageFix" result="effect1_dropShadow_103_2"/>
<feBlend mode="normal" in="SourceGraphic" in2="effect1_dropShadow_103_2" result="shape"/>
</filter>
<filter id="filter3_d_103_2" x="142" y="156" width="114" height="65" filterUnits="userSpaceOnUse" color-interpolation-filters="sRGB">
<feFlood flood-opacity="0" result="BackgroundImageFix"/>
<feColorMatrix in="SourceAlpha" type="matrix" values="0 0 0 0 0 0 0 0 0 0 0 0 0 0 0 0 0 0 127 0" result="hardAlpha"/>
<feOffset dy="4"/>
<feGaussianBlur stdDeviation="2"/>
<feComposite in2="hardAlpha" operator="out"/>
<feColorMatrix type="matrix" values="0 0 0 0 0 0 0 0 0 0 0 0 0 0 0 0 0 0 0.25 0"/>
<feBlend mode="normal" in2="BackgroundImageFix" result="effect1_dropShadow_103_2"/>
<feBlend mode="normal" in="SourceGraphic" in2="effect1_dropShadow_103_2" result="shape"/>
</filter>
</defs>
</svg>
